HIERARCHY
ROOT Hips
{
	OFFSET 0.000000 0.000000 0.000000
	CHANNELS 6 Xposition Yposition Zposition Zrotation Yrotation Xrotation 
	JOINT LHipJoint
	{
		OFFSET 0.000000 0.000000 0.000000
		CHANNELS 3 Zrotation Yrotation Xrotation
		JOINT LeftUpLeg
		{
			OFFSET 1.363060 -1.794630 0.839290
			CHANNELS 3 Zrotation Yrotation Xrotation
			JOINT LeftLeg
			{
				OFFSET 2.448110 -6.726130 0.000000
				CHANNELS 3 Zrotation Yrotation Xrotation
				JOINT LeftFoot
				{
					OFFSET 2.562200 -7.039590 0.000000
					CHANNELS 3 Zrotation Yrotation Xrotation
					JOINT LeftToeBase
					{
						OFFSET 0.157640 -0.433110 2.322550
						CHANNELS 3 Zrotation Yrotation Xrotation
						End Site
						{
							OFFSET 0.000000 0.000000 0.000000
						}
					}
				}
			}
		}
	}
	JOINT RHipJoint
	{
		OFFSET 0.000000 0.000000 0.000000
		CHANNELS 3 Zrotation Yrotation Xrotation
		JOINT RightUpLeg
		{
			OFFSET -1.305520 -1.794630 0.839290
			CHANNELS 3 Zrotation Yrotation Xrotation
			JOINT RightLeg
			{
				OFFSET -2.542530 -6.985550 0.000000
				CHANNELS 3 Zrotation Yrotation Xrotation
				JOINT RightFoot
				{
					OFFSET -2.568260 -7.056230 0.000000
					CHANNELS 3 Zrotation Yrotation Xrotation
					JOINT RightToeBase
					{
						OFFSET -0.164730 -0.452590 2.363150
						CHANNELS 3 Zrotation Yrotation Xrotation
						End Site
						{
							OFFSET 0.000000 0.000000 0.000000
						}
					}
				}
			}
		}
	}
}
MOTION
Frames: 30
Frame Time: 0.008333
23.787904 15.949160 0.336853 171.948741 -82.145675 -153.991184 -8.995488 -0.734990 4.534255 -11.294199 -5.919091 -60.149249 -1.054646 2.171601 46.415387 2.053708 7.778144 -11.922900 -0.305100 -0.000000 -12.679900 10.451513 -5.858940 1.546052 1.561827 -3.487319 11.363812 1.537557 -1.387078 12.781310 0.900002 14.690834 16.305580 5.392000 0.000000 -86.457700
23.588173 15.951587 0.345214 171.826395 -81.879549 -154.454773 -9.069987 -0.703642 4.135933 -11.881747 -5.018097 -59.023278 -1.055798 2.238616 47.402235 2.050858 7.788414 -12.567700 -0.447300 -0.000000 -12.694300 10.535761 -5.852424 1.431551 1.104820 -3.398186 10.256386 1.218662 -1.737485 16.788744 0.725512 15.039294 18.687928 6.186900 0.000001 -86.992401
23.393860 15.952592 0.354217 171.227054 -81.690039 -154.479882 -9.120984 -0.658959 3.726852 -12.537960 -4.135130 -57.782276 -1.077871 2.287861 48.262018 2.036127 7.721038 -13.284748 -0.599100 -0.000000 -12.732200 10.678997 -5.806045 1.265062 0.552471 -3.602590 8.899969 0.878152 -2.058843 21.173164 0.504368 15.028889 20.959941 6.829500 0.000001 -86.667700
23.204893 15.951993 0.363606 170.089041 -81.594045 -153.981391 -9.142248 -0.602587 3.322085 -13.254514 -3.320468 -56.456774 -1.115344 2.317915 49.009281 2.016755 7.603053 -14.075203 -0.758400 -0.000000 -12.772500 10.880958 -5.717360 1.053441 -0.089095 -4.076178 7.310614 0.534472 -2.346735 25.855618 0.239344 14.452866 23.020780 7.153700 -0.000000 -85.457800
23.020717 15.950100 0.373422 168.443548 -81.594589 -152.970344 -9.132128 -0.535151 2.936052 -14.009046 -2.607170 -55.079302 -1.162678 2.329378 49.656610 1.998796 7.458072 -14.933179 -0.922999 0.000000 -12.807100 11.131093 -5.585487 0.806660 -0.782672 -4.756036 5.520780 0.205715 -2.605214 30.743885 -0.063460 13.120407 24.740732 6.983900 0.000000 -83.369400
22.840419 15.947484 0.383577 166.311507 -81.688352 -151.450014 -9.087584 -0.455971 2.581134 -14.783983 -2.023558 -53.673557 -1.215243 2.323346 50.210624 1.987526 7.309552 -15.844890 -1.091200 -0.000000 -12.838200 11.421316 -5.411938 0.532052 -1.498052 -5.590022 3.560110 -0.096205 -2.845883 35.753899 -0.396866 10.942710 25.972212 6.209400 -0.000000 -80.438000
22.663625 15.945054 0.394178 163.763195 -81.858695 -149.474419 -9.008635 -0.363158 2.266804 -15.556725 -1.581697 -52.260392 -1.269635 2.302542 50.671827 1.986398 7.175790 -16.788829 -1.261100 -0.000000 -12.877000 11.740226 -5.199925 0.238977 -2.195821 -6.513326 1.455057 -0.368329 -3.083133 40.804674 -0.752131 7.954442 26.556909 4.829900 -0.000000 -76.767600
22.489246 15.943843 0.405414 160.894845 -82.081984 -147.128532 -8.898232 -0.254904 1.999454 -16.305193 -1.281027 -50.859002 -1.323874 2.270974 51.036760 1.996924 7.068963 -17.738719 -1.430599 -0.000000 -12.939200 12.075175 -4.954254 -0.062313 -2.838314 -7.464264 -0.777424 -0.616556 -3.330047 45.822908 -1.118319 4.336830 26.365759 2.989200 -0.000000 -72.496300
22.316779 15.944951 0.417360 157.803680 -82.329099 -144.495252 -8.760929 -0.129387 1.781873 -17.015182 -1.112325 -49.484649 -1.377565 2.232810 51.296699 2.018986 6.996080 -18.664692 -1.597300 -0.000000 -13.039400 12.414686 -4.680851 -0.359942 -3.396777 -8.384142 -3.131448 -0.852479 -3.594743 50.740880 -1.481359 0.392421 25.332693 0.953000 0.000001 -67.784599
22.145686 15.949566 0.430057 154.585588 -82.567504 -141.659739 -8.602743 0.013897 1.612368 -17.681102 -1.059001 -48.149017 -1.431982 2.191892 51.434658 2.051020 6.959434 -19.534511 -1.757700 0.000000 -13.187900 12.747956 -4.383646 -0.642017 -3.853157 -9.217650 -5.609049 -1.088878 -3.878308 55.493305 -1.825176 -3.525984 23.484333 -0.966600 0.000001 -62.785700
21.975488 15.958525 0.443561 151.384159 -82.766794 -138.750781 -8.436168 0.172504 1.483694 -18.295151 -1.093838 -46.865479 -1.489280 2.152862 51.440201 2.089399 6.951077 -20.323265 -1.907701 -0.000000 -13.383500 13.059177 -4.064355 -0.899198 -4.186464 -9.912569 -8.213087 -1.335180 -4.174663 60.021573 -2.133475 -7.101369 20.929790 -2.505100 0.000000 -57.623100
21.805834 15.972598 0.457819 148.309884 -82.916225 -135.882410 -8.270235 0.342424 1.393529 -18.857487 -1.189208 -45.631340 -1.550496 2.114564 51.299987 2.129927 6.958896 -21.009594 -2.042400 0.000000 -13.614200 13.339994 -3.732105 -1.114303 -4.387875 -10.431178 -10.938994 -1.593178 -4.473646 64.266920 -2.391779 -10.100916 17.839164 -3.504300 0.000000 -52.373500
21.636408 15.992395 0.472737 145.470067 -83.008881 -133.166592 -8.114599 0.518321 1.334015 -19.367976 -1.313912 -44.438444 -1.617495 2.075903 51.001917 2.167935 6.966548 -21.581525 -2.157000 0.000000 -13.856200 13.581352 -3.391659 -1.277515 -4.454280 -10.746089 -13.772431 -1.857923 -4.763274 68.175725 -2.587673 -12.391099 14.402081 -3.927900 -0.000000 -47.059401
21.467203 16.018330 0.488172 142.941859 -83.047553 -130.691076 -7.976475 0.694571 1.295818 -19.826393 -1.438141 -43.268138 -1.692038 2.034426 50.535279 2.199098 6.956647 -22.036723 -2.247300 -0.000000 -14.078300 13.777109 -3.047576 -1.383600 -4.391656 -10.845405 -16.684762 -2.118502 -5.032460 71.697042 -2.711353 -13.920713 10.801207 -3.839900 0.000000 -41.664300
21.297872 16.050599 0.504060 140.766778 -83.042352 -128.510343 -7.860123 0.865758 1.268118 -20.231300 -1.536573 -42.093984 -1.775860 1.987175 49.890565 2.220069 6.913459 -22.382719 -2.311200 -0.000000 -14.244099 13.923927 -2.703497 -1.433254 -4.214265 -10.732303 -19.634712 -2.360385 -5.272432 74.783566 -2.756271 -14.697930 7.198730 -3.369400 0.000000 -36.164900
21.128235 16.089399 0.520339 138.943105 -83.008363 -126.645819 -7.767505 1.028371 1.242062 -20.579495 -1.588162 -40.879176 -1.870273 1.930802 49.057241 2.228620 6.825392 -22.632418 -2.348200 0.000000 -14.322300 14.020889 -2.363626 -1.429884 -3.941097 -10.423651 -22.568035 -2.567839 -5.476427 77.390138 -2.720882 -14.776994 3.738058 -2.676000 -0.000000 -30.579400
20.958072 16.134799 0.537100 137.441137 -82.963241 -125.088657 -7.698562 1.179415 1.209419 -20.865291 -1.580625 -39.585685 -1.976069 1.862307 48.025530 2.224161 6.687443 -22.803368 -2.360200 0.000000 -14.291100 14.068718 -2.030657 -1.381338 -3.592850 -9.946974 -25.427345 -2.726661 -5.639840 79.477872 -2.610534 -14.251409 0.553198 -1.918800 -0.000000 -25.062300
20.786681 16.186022 0.553884 136.164490 -82.920133 -123.758324 -7.647076 1.318674 1.164640 -21.093343 -1.515503 -38.184618 -2.093755 1.780020 46.793616 2.207937 6.500482 -22.916792 -2.351300 -0.000000 -14.141200 14.073644 -1.704313 -1.296012 -3.194247 -9.332984 -28.161212 -2.828012 -5.760206 81.023063 -2.439517 -13.256432 -2.237960 -1.228200 0.000000 -19.998800
20.613491 16.244382 0.572356 135.170132 -82.903433 -122.730008 -7.622608 1.439324 1.105286 -21.230128 -1.391228 -36.638605 -2.220866 1.679745 45.336611 2.180952 6.275738 -22.975924 -2.324400 -0.000000 -13.890700 14.026277 -1.388471 -1.188089 -2.739787 -8.628858 -30.723247 -2.865953 -5.833755 81.993962 -2.226466 -11.936329 -4.493259 -0.691799 0.000000 -15.901600
20.437976 16.308791 0.592225 134.342522 -82.922973 -121.898735 -7.618354 1.542175 1.031756 -21.280620 -1.227585 -34.928806 -2.355292 1.560673 43.655062 2.146274 6.027479 -22.991155 -2.284901 0.000000 -13.565600 13.933186 -1.082272 -1.067950 -2.242837 -7.869073 -33.074459 -2.843664 -5.860487 82.392561 -1.996320 -10.464678 -6.161393 -0.333800 0.000001 -13.305300
20.259270 16.378912 0.614011 133.579462 -82.989180 -121.184273 -7.633320 1.626415 0.942203 -21.241044 -1.046535 -33.010954 -2.493699 1.421901 41.733271 2.106533 5.777124 -22.958976 -2.237301 -0.000000 -13.206999 13.795808 -0.786077 -0.954614 -1.713289 -7.095499 -35.157456 -2.765886 -5.841420 82.222398 -1.771713 -8.995822 -7.256197 -0.131000 0.000000 -12.414701
20.076869 16.453533 0.638090 132.957088 -83.104703 -120.628833 -7.671508 1.689928 0.855573 -21.102404 -0.879376 -30.950493 -2.628952 1.262802 39.594741 2.064829 5.544485 -22.868948 -2.184299 0.000000 -12.870900 13.609829 -0.504522 -0.844327 -1.125661 -6.334020 -37.024123 -2.638024 -5.778847 81.522260 -1.571854 -7.658372 -7.893591 -0.034100 0.000000 -12.835200
19.889773 16.531818 0.664945 132.462520 -83.272692 -120.215946 -7.736206 1.731717 0.778297 -20.862091 -0.753042 -28.755179 -2.754516 1.083731 37.244382 2.022733 5.350684 -22.701569 -2.127901 -0.000000 -12.610300 13.373465 -0.241414 -0.745541 -0.472773 -5.606166 -38.664996 -2.464741 -5.675877 80.312186 -1.408752 -6.537305 -8.186615 0.000300 0.000000 -14.288600
19.698115 16.612421 0.694763 132.093995 -83.495935 -119.938058 -7.831835 1.752787 0.720004 -20.520199 -0.689698 -26.450886 -2.862746 0.886775 34.706341 1.980515 5.209733 -22.436209 -2.068300 0.000000 -12.471200 13.085925 -0.003574 -0.661131 0.254288 -4.927547 -40.084654 -2.248143 -5.537798 78.625512 -1.285072 -5.659343 -8.316501 0.009100 0.000000 -15.876100
19.501208 16.694087 0.727747 131.877451 -83.775338 -119.811787 -7.963004 1.754578 0.686320 -20.078662 -0.702531 -24.065968 -2.946313 0.675102 32.006096 1.937269 5.129724 -22.048771 -2.003400 -0.000000 -12.488600 12.747278 0.202313 -0.590703 1.060268 -4.297169 -41.284298 -1.991099 -5.368622 76.482711 -1.197828 -5.009561 -8.392852 0.009401 0.000000 -17.226300
19.299334 16.775451 0.763817 131.852277 -84.111508 -119.866363 -8.133120 1.740346 0.680198 -19.542385 -0.792668 -21.636083 -2.998788 0.453765 29.180007 1.890989 5.109343 -21.517615 -1.929000 0.000000 -12.681100 12.359847 0.369796 -0.529815 1.943786 -3.704477 -42.266994 -1.696322 -5.172117 73.900162 -1.139075 -4.535270 -8.490867 0.008800 0.000000 -18.072400
19.092682 16.855057 0.802750 132.099552 -84.501519 -120.178338 -8.346945 1.715860 0.702014 -18.916226 -0.940177 -19.201778 -3.015872 0.229839 26.274750 1.837977 5.132521 -20.827358 -1.838700 0.000000 -13.054300 11.926021 0.492475 -0.468875 2.898902 -3.129110 -43.034444 -1.367665 -4.949988 70.888499 -1.098308 -4.163457 -8.624063 0.008799 -0.000000 -18.419700
18.881563 16.931433 0.843822 132.740353 -84.942467 -120.851015 -8.603540 1.688460 0.747977 -18.208683 -1.109546 -16.821745 -2.996960 0.011446 23.348801 1.773636 5.167265 -19.973595 -1.724600 0.000000 -13.602000 11.452526 0.566847 -0.395110 3.915085 -2.547189 -43.604569 -1.008357 -4.704327 67.455798 -1.063995 -3.815583 -8.776733 0.007999 0.000000 -18.305001
18.666430 17.002406 0.885179 133.731238 -85.410171 -121.835577 -8.888409 1.671904 0.812807 -17.463851 -1.264021 -14.536194 -2.948405 -0.193056 20.456576 1.695353 5.181731 -18.964621 -1.582900 0.000000 -14.298401 10.957558 0.597191 -0.293417 4.939719 -1.946545 -43.991509 -0.624070 -4.436220 63.618783 -1.024178 -3.419857 -8.898224 0.003200 -0.000000 -18.014100
18.448409 17.067658 0.926901 135.520330 -85.918029 -123.597498 -9.215826 1.670195 0.873007 -16.640677 -1.293897 -12.371634 -2.874893 -0.373470 17.660550 1.590806 5.090549 -17.815264 -1.403900 0.000000 -15.155599 10.438014 0.577680 -0.158975 5.991489 -1.290833 -44.157732 -0.216921 -4.140543 59.363458 -0.970731 -2.947648 -8.890383 -0.011400 -0.000000 -17.845600
